<svg width="620" height="956" viewBox="0 0 620 956" fill="none" xmlns="http://www.w3.org/2000/svg">
<g clip-path="url(#clip0_208_44846)">
<rect width="620" height="956" fill="#F4F6F7"/>
<path d="M534.38 293.405C518.248 271.15 487.966 267.841 474.138 243.578C461.494 221.402 468.363 192.868 470.807 167.014C474.416 128.897 465.281 85.9594 439.237 61.1761C408.056 31.4894 363.72 37.137 332.411 58.6605C318.538 68.1991 306.305 80.5734 295.153 94.0622C284.296 107.191 275.222 122.275 263.142 133.84C246.901 149.393 223.844 154.175 202.928 154.032C180.496 153.876 157.3 154.524 137.447 165.765C112.729 179.796 95.9065 210.516 94.9772 243.358C94.0479 276.201 109.034 309.905 132.834 328.461C141.332 335.088 150.869 339.94 158.455 347.987C176.139 366.748 178.924 397.802 176.88 424.98C174.835 452.158 169.307 479.725 175.18 506.551C182.488 539.912 208.151 567.009 236.776 573.528C265.402 580.048 295.532 566.577 313.586 540.943C327.273 521.504 336.03 494.437 356.393 485.999C370.394 480.22 386.092 485.088 401.099 487.392C439.077 493.214 478.526 481.101 506.814 452.548C535.101 423.995 551.277 378.955 547.343 334.092C546.069 319.599 542.549 304.692 534.38 293.405Z" fill="#F3FAF9"/>
<path d="M86.2194 579.139C79.4811 556.77 77.1118 534.191 68.651 512.266C46.604 455.207 41.9833 413.232 90.9453 368.467C130.519 332.284 188.438 309.449 242.041 308.27C275.37 307.543 309.733 314.83 337.773 333.442C366.628 352.595 381.27 387.683 415.852 398.995C444.08 408.175 476.808 399.07 502.546 415.943C563.983 456.214 531.889 542.695 486.289 581.359C417.593 639.59 314.276 664.472 225.949 661.168C197.106 660.089 167.893 655.231 142.196 642.099C116.498 628.968 94.5289 606.801 86.2194 579.139Z" fill="#F6F9FB"/>
<g filter="url(#filter0_f_208_44846)">
<path d="M855.287 530.883C880.649 555.738 900.348 584.075 927.679 607.077C998.847 666.92 1035.75 719.44 1003.34 814.932C977.142 892.116 916.73 964.963 846.203 1005.81C802.346 1031.19 751.24 1046.66 700.258 1042.42C647.795 1038.05 602.587 1002.04 548.24 1012.31C503.918 1020.77 466.999 1056.87 420.358 1053.26C309.029 1044.63 288.414 905.937 320.82 821.032C369.651 693.147 489.027 584.314 609.088 524.003C648.293 504.307 690.759 489.375 734.606 488.038C778.453 486.7 823.954 500.129 855.287 530.883Z" fill="#EBF2F6"/>
</g>
</g>
<defs>
<filter id="filter0_f_208_44846" x="295.896" y="476.947" width="730.304" height="587.562" filterUnits="userSpaceOnUse" color-interpolation-filters="sRGB">
<feFlood flood-opacity="0" result="BackgroundImageFix"/>
<feBlend mode="normal" in="SourceGraphic" in2="BackgroundImageFix" result="shape"/>
<feGaussianBlur stdDeviation="5.5" result="effect1_foregroundBlur_208_44846"/>
</filter>
<clipPath id="clip0_208_44846">
<rect width="620" height="956" fill="white"/>
</clipPath>
</defs>
</svg>
